<svg xmlns="http://www.w3.org/2000/svg" fill="none" viewBox="0 0 475 439">
  <path d="M235.793 396.126a187.281 187.281 0 00187.285-187.284A187.283 187.283 0 00235.793 21.558 187.287 187.287 0 0048.509 208.842a187.286 187.286 0 00187.284 187.284z" fill="#FFD21E"/>
  <path d="M423.078 208.842A187.283 187.283 0 00235.793 21.558 187.283 187.283 0 0048.509 208.842a187.283 187.283 0 00319.714 132.43 187.284 187.284 0 0054.855-132.43zm-396.127 0a208.842 208.842 0 11417.685 0 208.842 208.842 0 01-417.685 0z" fill="#FF9D0B"/>
  <path d="M296.641 157.912c6.898 2.371 9.593 16.491 16.545 12.827a26.946 26.946 0 008.24-40.841 26.952 26.952 0 00-28.632-8.767 26.942 26.942 0 00-19.055 23.099 26.943 26.943 0 003.014 15.352c3.288 6.198 13.744-3.88 19.941-1.724l-.053.054zm-126.923 0c-6.898 2.371-9.647 16.491-16.545 12.827a26.946 26.946 0 01-8.24-40.841 26.952 26.952 0 0128.632-8.767 26.944 26.944 0 0116.041 38.451c-3.288 6.198-13.797-3.88-19.941-1.724l.053.054z" fill="#3A3B45"/>
  <path d="M234.446 287.205c52.979 0 70.063-47.212 70.063-71.464 0-12.612-8.461-8.624-22.043-1.941-12.557 6.198-29.426 14.768-47.966 14.768-38.75 0-70.063-37.08-70.063-12.827 0 24.252 17.031 71.464 70.063 71.464h-.054z" fill="#FF323D"/>
</svg>
